<?xml version="1.0" encoding="UTF-8"?>
<svg id="Layer_1" data-name="Layer 1" xmlns="http://www.w3.org/2000/svg" viewBox="0 0 1200 1200">
  <defs>
    <style>
      .cls-1 {
        fill: #fff;
      }
    </style>
  </defs>
  <path class="cls-1" d="m1122.1,906.57c-1.49,18.98-8.86,36.04-20.3,47.43-12.49,12.49-27.62,19.09-43.85,19.09h-.06l-187.68-.06c-35.98-.06-64.16-29.27-64.16-66.58l.06-52.27c0-25.42-16.07-46.55-40.06-52.55-55.9-14.86-105.75-24.7-167.82-24.7h-.22c-64.93,0-118.9,11.83-167.54,24.59-10.51,3.52-18.32,8.03-24.7,14.47-10.07,10.01-15.41,23.16-15.41,38.02l-.06,52.27c-1.43,18.98-8.8,36.04-20.25,47.48-12.49,12.43-27.62,19.04-43.91,19.04l-184.1,1.1c-34.66,0-62.84-29.11-64.16-66.19,1.16-63.33,4.9-105.26,47.04-157.58l11.28-11.39c34.55-34.5,170.13-147.18,464-147.18,3.36.16,6.22,0,9.3,0,242.76,0,378,45.94,465.7,157.8,43.63,53.59,46.88,97.06,46.88,157.2Z"/>
  <path class="cls-1" d="m903.22,540.51c-5.83,5.94-13.65,9.19-22.06,9.19s-16.29-3.25-22.12-9.19c-136.95-136.89-359.84-136.89-496.79,0-5.94,5.94-13.76,9.19-22.06,9.19s-16.12-3.25-22.06-9.19c-5.94-5.94-9.19-13.76-9.19-22.06s3.25-16.12,9.19-22.06c78.02-78.02,181.9-120.99,292.55-120.99s214.53,42.97,292.55,120.99c12.16,12.16,12.16,31.97,0,44.13Z"/>
  <path class="cls-1" d="m975.07,443.92c-8.59,0-17.18-3.28-23.74-9.84-187.83-187.83-493.45-187.85-681.32,0-13.12,13.12-34.37,13.12-47.49,0-13.12-13.12-13.12-34.37,0-47.49,214.04-214.02,562.3-214.02,776.3,0,13.12,13.12,13.12,34.37,0,47.49-6.56,6.56-15.15,9.84-23.74,9.84Z"/>
</svg>