<svg width="84" height="16" viewBox="0 0 84 16" fill="none" xmlns="http://www.w3.org/2000/svg">
<g id="Main Logotype 1" clip-path="url(#clip0_272_525)">
<path id="Vector" fill-rule="evenodd" clip-rule="evenodd" d="M12.5131 9.25353C12.5439 11.4079 10.8206 13.1706 8.69748 13.1706L6.34405 13.1678C5.58575 13.1673 4.97157 12.5448 4.97157 11.7778C4.97157 11.0102 5.58688 10.3877 6.3457 10.3877H8.67109C9.24793 10.3877 9.73785 9.96499 9.76094 9.35253C9.78403 8.74012 9.29797 8.23448 8.69748 8.23448H4.04611C1.9522 8.23448 0.204706 6.55239 0.172814 4.4342C0.140371 2.27821 1.86477 0.513794 3.98837 0.513794H10.4522C11.2121 0.513794 11.8279 1.13679 11.8279 1.90552C11.8279 2.67426 11.2121 3.29725 10.4522 3.29725H4.01423C3.43741 3.29725 2.94748 3.72 2.92438 4.33243C2.90129 4.94485 3.38737 5.45048 3.98784 5.45048H8.63644C10.732 5.45048 12.4828 7.13367 12.5131 9.25353ZM3.60018 11.7834C3.60018 12.5495 2.98619 13.1706 2.22879 13.1706C1.4714 13.1706 0.857407 12.5495 0.857407 11.7834C0.857407 11.0172 1.4714 10.3961 2.22879 10.3961C2.98619 10.3961 3.60018 11.0172 3.60018 11.7834Z" fill="#9CA3AF"/>
<path id="Vector_2" d="M45.7942 4.80808V6.37446C45.7942 6.4479 45.7353 6.50741 45.6628 6.50741H44.0148V12.2362C44.0148 12.3096 43.9559 12.3691 43.8834 12.3691H42.083C42.0106 12.3691 41.9517 12.3096 41.9517 12.2362V1.60633C41.9517 1.53291 42.0106 1.47339 42.083 1.47339H43.8834C43.9559 1.47339 44.0148 1.53291 44.0148 1.60633V4.67513H45.6628C45.7353 4.67513 45.7942 4.73467 45.7942 4.80808Z" fill="#9CA3AF"/>
<path id="Vector_3" d="M23.5078 6.80151C23.1982 6.57347 22.8545 6.3899 22.4762 6.25194C22.0979 6.11398 21.7075 6.00499 21.3034 5.92543C20.8992 5.84588 20.5082 5.76636 20.1305 5.68623C19.7527 5.60671 19.4112 5.51102 19.1071 5.39979C18.8025 5.28852 18.5589 5.13446 18.3747 4.93809C18.1911 4.74173 18.0992 4.47864 18.0992 4.14989C18.0992 3.77832 18.2515 3.4785 18.5556 3.24988C18.8602 3.02182 19.2798 2.90724 19.8154 2.90724C20.3928 2.90724 20.8623 3.04797 21.2247 3.32943C21.5393 3.57418 21.7652 3.94464 21.9011 4.44135C21.9198 4.50924 21.9857 4.55261 22.0545 4.53814L23.9834 4.13877C24.0598 4.12319 24.1066 4.04309 24.0824 3.968C23.9009 3.40786 23.698 3.01403 23.4297 2.68418C23.0151 2.17466 22.501 1.79753 21.8868 1.55333C21.2726 1.30914 20.6034 1.18677 19.8792 1.18677C19.0395 1.18677 18.3258 1.33028 17.738 1.61674C17.1502 1.90321 16.7042 2.28591 16.3996 2.76372C16.095 3.24154 15.9426 3.76719 15.9426 4.34068C15.9426 4.88246 16.0317 5.33079 16.2104 5.6868C16.3891 6.04281 16.6305 6.33203 16.9346 6.55509C17.2392 6.77816 17.5829 6.95614 17.9662 7.08852C18.3494 7.22147 18.7432 7.33274 19.1473 7.42285C19.5515 7.51297 19.9424 7.60084 20.3202 7.68541C20.698 7.77051 21.0394 7.87395 21.3435 7.99578C21.6481 8.11817 21.8895 8.28503 22.0677 8.4975C22.2458 8.71 22.3355 8.99147 22.3355 9.3419C22.3355 9.77743 22.1677 10.1251 21.8318 10.3854C21.4958 10.6457 20.9971 10.7759 20.3361 10.7759C19.6752 10.7759 19.1737 10.6218 18.7695 10.3142C18.4247 10.0516 18.1773 9.69176 18.0272 9.23508C18.0052 9.16722 17.9365 9.12773 17.8683 9.14611L16.0405 9.64673C15.9674 9.66674 15.9245 9.74629 15.9503 9.8186C16.101 10.248 16.3061 10.6257 16.5656 10.9517C16.9803 11.4718 17.5054 11.8595 18.1405 12.1142C18.7756 12.369 19.5025 12.4964 20.3213 12.4964C21.14 12.4964 21.8488 12.3634 22.4784 12.0981C23.108 11.8328 23.604 11.4423 23.9664 10.9272C24.3287 10.4121 24.5096 9.79357 24.5096 9.07156C24.5096 8.51922 24.4206 8.0603 24.2419 7.69373C24.0632 7.32716 23.8196 7.03012 23.5094 6.80151H23.5078Z" fill="#9CA3AF"/>
<path id="Vector_4" d="M39.0269 4.82638C38.5907 4.54548 38.0899 4.40417 37.5229 4.40417C36.956 4.40417 36.4287 4.53158 35.9717 4.78631C35.7243 4.92428 35.5071 5.09228 35.3185 5.28807V4.69567C35.3185 4.62223 35.2596 4.56272 35.1871 4.56272H33.3868C33.3142 4.56272 33.2554 4.62223 33.2554 4.69567V12.1238C33.2554 12.1972 33.3142 12.2567 33.3868 12.2567H35.1871C35.2596 12.2567 35.3185 12.1972 35.3185 12.1238V7.844C35.3185 7.547 35.3839 7.27833 35.5154 7.03969C35.6462 6.80106 35.8277 6.61749 36.0586 6.49012C36.2896 6.36272 36.5519 6.29877 36.846 6.29877C37.287 6.29877 37.6489 6.44228 37.9327 6.72876C38.2157 7.0152 38.3576 7.38735 38.3576 7.844V12.1238C38.3576 12.1972 38.4165 12.2567 38.489 12.2567H40.3052C40.378 12.2567 40.4365 12.1972 40.4365 12.1238V7.3662C40.4365 6.85669 40.3108 6.37609 40.0589 5.92442C39.807 5.47328 39.4628 5.10674 39.0281 4.82528L39.0269 4.82638Z" fill="#9CA3AF"/>
<path id="Vector_5" d="M52.5708 4.77855C52.1297 4.52932 51.6207 4.40419 51.0433 4.40419C50.466 4.40419 49.9513 4.53156 49.5001 4.78633C49.2621 4.92038 49.0526 5.0828 48.8705 5.27191V1.62183C48.8705 1.54841 48.812 1.48889 48.7392 1.48889H46.9391C46.8663 1.48889 46.8074 1.54841 46.8074 1.62183V12.1243C46.8074 12.1977 46.8663 12.2573 46.9391 12.2573H48.7392C48.812 12.2573 48.8705 12.1977 48.8705 12.1243V7.84455C48.8705 7.54751 48.9362 7.27888 49.0676 7.04024C49.1983 6.80161 49.38 6.61804 49.6108 6.49067C49.8417 6.36327 50.1041 6.29932 50.398 6.29932C50.8391 6.29932 51.201 6.44283 51.4848 6.72931C51.7679 7.01575 51.9097 7.3879 51.9097 7.84455V12.1243C51.9097 12.1977 51.9687 12.2573 52.0411 12.2573H53.8573C53.9301 12.2573 53.9887 12.1977 53.9887 12.1243V7.36675C53.9887 6.7827 53.8629 6.26761 53.611 5.82148C53.3592 5.3754 53.0127 5.02774 52.5719 4.77855H52.5708Z" fill="#9CA3AF"/>
<path id="Vector_6" d="M57.921 3.62384C58.124 3.39467 58.406 3.2684 58.766 3.24504C58.835 3.24059 58.8895 3.18608 58.8895 3.11655V1.44948C58.8895 1.37494 58.8283 1.31375 58.7547 1.31598C58.1278 1.33489 57.5745 1.48563 57.0947 1.76765C56.58 2.07025 56.1863 2.4713 55.9133 2.97025C55.6457 3.4603 55.5098 3.99152 55.5049 4.56333H55.5038V12.1238C55.5038 12.1973 55.5627 12.2568 55.6352 12.2568H57.4513C57.5242 12.2568 57.5827 12.1973 57.5827 12.1238V6.50631H59.2315C59.3039 6.50631 59.3629 6.4468 59.3629 6.37336V4.80698C59.3629 4.73357 59.3039 4.67403 59.2315 4.67403H57.5827C57.5827 4.30245 57.6957 3.87749 57.9217 3.62273L57.921 3.62384Z" fill="#9CA3AF"/>
<path id="Vector_7" d="M62.4899 1.47339H60.6902C60.6174 1.47339 60.5588 1.53291 60.5588 1.60633V12.1238C60.5588 12.1973 60.6174 12.2568 60.6902 12.2568H62.4899C62.5623 12.2568 62.6213 12.1973 62.6213 12.1238V1.60633C62.6213 1.53291 62.5623 1.47339 62.4899 1.47339Z" fill="#9CA3AF"/>
<path id="Vector_8" d="M69.8308 4.9142C69.2166 4.56376 68.521 4.38855 67.7443 4.38855C66.968 4.38855 66.2878 4.56654 65.6736 4.92198C65.0595 5.27795 64.5741 5.75579 64.2171 6.35541C63.8601 6.9556 63.6814 7.63258 63.6814 8.38626C63.6814 9.13998 63.8597 9.83864 64.2171 10.4489C64.5741 11.0596 65.0595 11.543 65.6736 11.8984C66.2878 12.2544 66.9781 12.4319 67.7443 12.4319C68.5109 12.4319 69.2192 12.2544 69.839 11.8984C70.458 11.543 70.9464 11.0568 71.3034 10.441C71.6601 9.82527 71.8384 9.14055 71.8384 8.38626C71.8384 7.63201 71.6574 6.95283 71.2952 6.34763C70.9325 5.74242 70.4449 5.26463 69.8308 4.9142ZM69.4685 9.46983C69.3056 9.77799 69.0747 10.0222 68.7755 10.2024C68.4763 10.3832 68.1321 10.4733 67.7443 10.4733C67.3569 10.4733 67.0307 10.3832 66.7364 10.2024C66.4424 10.0222 66.2142 9.77799 66.0513 9.46983C65.8887 9.16223 65.8073 8.80626 65.8073 8.4024C65.8073 7.99858 65.8887 7.64313 66.0513 7.33497C66.2142 7.02737 66.4424 6.7854 66.7364 6.61018C67.0303 6.43497 67.3667 6.34763 67.7443 6.34763C68.1223 6.34763 68.4714 6.43554 68.7601 6.61018C69.0488 6.7854 69.2797 7.0268 69.4531 7.33497C69.6262 7.64313 69.7129 7.99858 69.7129 8.4024C69.7129 8.80626 69.6318 9.16166 69.4689 9.46983H69.4685Z" fill="#9CA3AF"/>
<path id="Vector_9" d="M28.4555 8.79578L26.791 4.64617C26.7707 4.59612 26.7229 4.56331 26.6695 4.56331H24.6872C24.5937 4.56331 24.5299 4.65954 24.5662 4.74688L27.3184 11.4257L25.6418 15.3039C25.6038 15.3918 25.6676 15.4897 25.7622 15.4897H27.6807C27.7324 15.4897 27.7797 15.4585 27.8006 15.4107L32.4712 4.74909C32.5097 4.66121 32.4459 4.56274 32.3514 4.56274H30.3713C30.319 4.56274 30.2717 4.59388 30.2508 4.6423L28.4555 8.79521V8.79578Z" fill="#9CA3AF"/>
<path id="Vector_10" d="M74.396 4.67505H72.3081C72.2183 4.67505 72.1553 4.76349 72.1838 4.84969L74.5837 12.1683C74.6014 12.2227 74.652 12.2589 74.7083 12.2589H76.7959C76.8856 12.2589 76.9487 12.1705 76.9202 12.0843L74.5203 4.76573C74.5026 4.7112 74.452 4.67505 74.396 4.67505Z" fill="#9CA3AF"/>
<path id="Vector_11" d="M78.3275 4.67505H76.2396C76.1499 4.67505 76.0868 4.76349 76.1153 4.84969L78.5156 12.1683C78.5329 12.2227 78.5836 12.2589 78.6399 12.2589H80.7274C80.8172 12.2589 80.8806 12.1705 80.8517 12.0843L78.4518 4.76573C78.4342 4.7112 78.3835 4.67505 78.3275 4.67505Z" fill="#9CA3AF"/>
<path id="Vector_12" d="M81.7646 7.43459C82.5244 7.43459 83.1404 6.8115 83.1404 6.04286C83.1404 5.27425 82.5244 4.65112 81.7646 4.65112C81.0048 4.65112 80.3888 5.27425 80.3888 6.04286C80.3888 6.8115 81.0048 7.43459 81.7646 7.43459Z" fill="#9CA3AF"/>
</g>
<defs>
<clipPath id="clip0_272_525">
<rect width="83" height="15" fill="white" transform="translate(0.172363 0.5)"/>
</clipPath>
</defs>
</svg>
