<svg width="20" height="21" viewBox="0 0 20 21" fill="none" xmlns="http://www.w3.org/2000/svg">
<g id="mic">
<path id="Vector (Stroke)" fill-rule="evenodd" clip-rule="evenodd" d="M7.73739 2.40393C8.3375 1.80382 9.15144 1.46667 10.0001 1.46667C10.8488 1.46667 11.6628 1.80382 12.2629 2.40393C12.863 3.00405 13.2001 3.81798 13.2001 4.66667V10.5C13.2001 11.3487 12.863 12.1626 12.2629 12.7627C11.6628 13.3629 10.8488 13.7 10.0001 13.7C9.15144 13.7 8.3375 13.3629 7.73739 12.7627C7.13727 12.1626 6.80013 11.3487 6.80013 10.5V4.66667C6.80013 3.81798 7.13727 3.00405 7.73739 2.40393ZM4.1668 8.13334C4.5534 8.13334 4.8668 8.44674 4.8668 8.83334V10.5C4.8668 11.8615 5.40763 13.1671 6.37032 14.1298C7.333 15.0925 8.63869 15.6333 10.0001 15.6333C11.3616 15.6333 12.6673 15.0925 13.6299 14.1298C14.5926 13.1671 15.1335 11.8615 15.1335 10.5V8.83334C15.1335 8.44674 15.4469 8.13334 15.8335 8.13334C16.2201 8.13334 16.5335 8.44674 16.5335 8.83334V10.5C16.5335 12.2328 15.8451 13.8945 14.6199 15.1198C13.5608 16.1789 12.1755 16.8368 10.7001 16.9958V18.8333C10.7001 19.2199 10.3867 19.5333 10.0001 19.5333C9.61353 19.5333 9.30013 19.2199 9.30013 18.8333V16.9958C7.82477 16.8368 6.43947 16.1789 5.38037 15.1198C4.15513 13.8945 3.4668 12.2328 3.4668 10.5V8.83334C3.4668 8.44674 3.7802 8.13334 4.1668 8.13334Z" fill="#F1F5F9"/>
</g>
</svg>
