<svg width="30" height="29" viewBox="0 0 30 29" fill="none" xmlns="http://www.w3.org/2000/svg">
<g id="phone" clip-path="url(#clip0_68_595)">
<path id="Vector" d="M6.2083 17.4935L4.44053 15.7257C4.27576 15.5623 4.14694 15.3662 4.06232 15.1501C3.97769 14.934 3.93914 14.7026 3.94913 14.4707C3.95911 14.2388 4.01741 14.0116 4.1203 13.8036C4.22319 13.5955 4.36838 13.4113 4.5466 13.2626C6.55686 11.6464 8.9182 10.5243 11.4409 9.98636C13.7693 9.46732 16.1835 9.46732 18.512 9.98636C21.0451 10.5277 23.415 11.6582 25.4298 13.2862C25.6075 13.4344 25.7524 13.618 25.8552 13.8253C25.958 14.0326 26.0166 14.259 26.0271 14.4901C26.0376 14.7213 25.9999 14.9521 25.9164 15.1678C25.8328 15.3836 25.7052 15.5796 25.5418 15.7434L23.774 17.5112C23.4909 17.7999 23.1124 17.9759 22.7091 18.0063C22.3058 18.0366 21.9052 17.9193 21.582 17.6761C20.9416 17.185 20.2478 16.7679 19.5137 16.4328C19.2235 16.3012 18.9771 16.0891 18.8038 15.8218C18.6304 15.5544 18.5373 15.243 18.5355 14.9243V13.4276C16.2215 12.7912 13.7785 12.7912 11.4645 13.4276V14.9243C11.4627 15.243 11.3696 15.5544 11.1962 15.8218C11.0229 16.0891 10.7765 16.3012 10.4863 16.4328C9.75219 16.7679 9.05835 17.185 8.41801 17.6761C8.09139 17.922 7.6858 18.0392 7.27837 18.0056C6.87095 17.9719 6.49012 17.7896 6.2083 17.4935Z" fill="#F8FAFC" stroke="#F8FAFC" stroke-width="0.4" stroke-linecap="round" stroke-linejoin="round"/>
</g>
<defs>
<clipPath id="clip0_68_595">
<rect width="20" height="20" fill="white" transform="translate(29.1421 14.5) rotate(135)"/>
</clipPath>
</defs>
</svg>
