<svg width="94" height="93" viewBox="0 0 94 93" fill="none" xmlns="http://www.w3.org/2000/svg">
<g id="phone-call">
<path id="Vector" d="M54.9438 7.75001C62.8421 8.58224 70.2197 12.0854 75.8566 17.68C81.4936 23.2747 85.0521 30.6257 85.9438 38.5175M54.9438 23.25C58.7549 24.0015 62.2521 25.8812 64.9815 28.6452C67.7109 31.4092 69.5465 34.9298 70.25 38.75M85.75 65.565V77.19C85.7544 78.2692 85.5334 79.3374 85.101 80.3262C84.6687 81.315 84.0346 82.2027 83.2393 82.9322C82.4441 83.6618 81.5053 84.2173 80.4829 84.563C79.4606 84.9087 78.3774 85.0371 77.3025 84.94C65.3785 83.6444 53.9247 79.5698 43.8613 73.0438C34.4986 67.0943 26.5607 59.1564 20.6113 49.7938C14.0625 39.6847 9.98699 28.1751 8.71505 16.1975C8.61821 15.1259 8.74556 14.046 9.08899 13.0263C9.43241 12.0067 9.98438 11.0697 10.7098 10.275C11.4351 9.4804 12.318 8.84551 13.3022 8.41078C14.2864 7.97606 15.3504 7.75102 16.4263 7.75001H28.0513C29.9319 7.7315 31.755 8.39744 33.1809 9.6237C34.6068 10.85 35.5381 12.5529 35.8013 14.415C36.292 18.1353 37.2019 21.7881 38.5138 25.3038C39.0352 26.6907 39.148 28.1981 38.8389 29.6472C38.5299 31.0963 37.8119 32.4264 36.77 33.48L31.8488 38.4013C37.3651 48.1025 45.3976 56.135 55.0988 61.6513L60.02 56.73C61.0736 55.6882 62.4038 54.9702 63.8529 54.6611C65.302 54.3521 66.8093 54.4649 68.1963 54.9863C71.712 56.2981 75.3648 57.2081 79.085 57.6988C80.9674 57.9643 82.6865 58.9124 83.9154 60.3628C85.1442 61.8132 85.7972 63.6646 85.75 65.565Z" stroke="#22C55E" stroke-width="5" stroke-linecap="round" stroke-linejoin="round"/>
</g>
</svg>
