<svg width="35" height="35" viewBox="0 0 35 35" fill="none" xmlns="http://www.w3.org/2000/svg">
<rect x="0.5" y="0.5" width="34" height="34" rx="7.5" fill="#F5F3FF" stroke="#DDD6FE"/>
<path d="M25.0001 21.1901V23.4401C25.0009 23.6489 24.9581 23.8557 24.8745 24.0471C24.7908 24.2385 24.668 24.4103 24.5141 24.5515C24.3602 24.6927 24.1785 24.8002 23.9806 24.8671C23.7828 24.934 23.5731 24.9589 23.3651 24.9401C21.0572 24.6893 18.8403 23.9007 16.8926 22.6376C15.0804 21.4861 13.5441 19.9497 12.3926 18.1376C11.1251 16.181 10.3363 13.9533 10.0901 11.6351C10.0713 11.4277 10.096 11.2186 10.1624 11.0213C10.2289 10.8239 10.3358 10.6426 10.4761 10.4888C10.6165 10.335 10.7874 10.2121 10.9779 10.128C11.1684 10.0438 11.3743 10.0003 11.5826 10.0001H13.8326C14.1966 9.99649 14.5494 10.1254 14.8254 10.3627C15.1014 10.6001 15.2816 10.9297 15.3326 11.2901C15.4275 12.0101 15.6037 12.7171 15.8576 13.3976C15.9585 13.666 15.9803 13.9578 15.9205 14.2382C15.8607 14.5187 15.7217 14.7762 15.5201 14.9801L14.5676 15.9326C15.6352 17.8102 17.1899 19.3649 19.0676 20.4326L20.0201 19.4801C20.224 19.2784 20.4814 19.1395 20.7619 19.0796C21.0424 19.0198 21.3341 19.0417 21.6026 19.1426C22.283 19.3965 22.99 19.5726 23.7101 19.6676C24.0744 19.719 24.4071 19.9025 24.645 20.1832C24.8828 20.4639 25.0092 20.8223 25.0001 21.1901Z" stroke="#C4B5FD" stroke-width="1.4" stroke-linecap="round" stroke-linejoin="round"/>
</svg>
